<?xml version="1.0" encoding="iso-8859-1"?>
<!-- Generator: Adobe Illustrator 19.0.0, SVG Export Plug-In . SVG Version: 6.00 Build 0)  -->
<svg version="1.1" id="Capa_1" xmlns="http://www.w3.org/2000/svg" xmlns:xlink="http://www.w3.org/1999/xlink" x="0px" y="0px"
	 viewBox="0 0 479.998 479.998" style="enable-background:new 0 0 479.998 479.998;" xml:space="preserve">
<path style="fill:#55D5F2;" d="M424,455.998v-280h48l-72-65.736V23.998h-48V66.43L288,7.998l-184,168h56v280H424z"/>
<path style="fill:#ED4720;" d="M72,231.998l40,160h192l56-160H72z"/>
<circle style="fill:#A3EA0A;" cx="216" cy="311.998" r="48"/>
<g>
	<circle style="fill:#D3D3D3;" cx="256" cy="447.998" r="24"/>
	<circle style="fill:#D3D3D3;" cx="160" cy="447.998" r="24"/>
</g>
<path d="M216,367.998c30.88,0,56-25.12,56-56s-25.12-56-56-56s-56,25.12-56,56S185.12,367.998,216,367.998z M216,271.998
	c22.056,0,40,17.944,40,40s-17.944,40-40,40s-40-17.944-40-40S193.944,271.998,216,271.998z"/>
<path d="M216,319.998h24v-16h-16v-16h-16v24C208,316.414,211.584,319.998,216,319.998z"/>
<path d="M0,263.998h48v16H0V263.998z"/>
<path d="M0,327.998h64v16H0V327.998z"/>
<path d="M0,391.998h72v16H0V391.998z"/>
<path d="M64.312,234.238l39.928,159.704c0.888,3.56,4.088,6.056,7.76,6.056h40v17.136c-13.76,3.576-24,16-24,30.864
	c0,17.648,14.352,32,32,32c11.792,0,22-6.48,27.552-16h40.904c5.552,9.52,15.76,16,27.552,16c11.792,0,22-6.48,27.552-16H424
	c4.416,0,8-3.584,8-8v-272h40c3.304,0,6.264-2.024,7.456-5.104s0.376-6.576-2.064-8.8L408,106.734V23.998c0-4.416-3.584-8-8-8h-48
	c-4.416,0-8,3.584-8,8v24.296l-50.608-46.2c-3.056-2.792-7.736-2.792-10.792,0l-184,168c-2.44,2.224-3.256,5.72-2.064,8.8
	c1.2,3.08,4.16,5.104,7.464,5.104h48v40H77.768L63.592,181.47c-1.096-3.272-4.144-5.472-7.592-5.472H0v16h50.232L64.312,234.238z
	 M160,167.998h-35.376L288,18.83l58.608,53.504c2.344,2.144,5.72,2.696,8.624,1.416c2.896-1.28,4.768-4.152,4.768-7.32V31.998h32
	v78.264c0,2.248,0.944,4.392,2.608,5.904l56.768,51.832H424c-4.416,0-8,3.584-8,8v272H288c0-14.864-10.24-27.288-24-30.864v-17.136
	h40c3.4,0,6.432-2.152,7.552-5.352l56-160c0.856-2.448,0.472-5.16-1.024-7.272s-3.936-3.376-6.528-3.376H168v-48
	C168,171.582,164.416,167.998,160,167.998z M256,463.998c-8.824,0-16-7.176-16-16s7.176-16,16-16c8.824,0,16,7.176,16,16
	S264.824,463.998,256,463.998z M192,447.998c0-14.864-10.24-27.288-24-30.864v-17.136h80v17.136c-13.76,3.576-24,16-24,30.864H192z
	 M160,463.998c-8.824,0-16-7.176-16-16s7.176-16,16-16s16,7.176,16,16S168.824,463.998,160,463.998z M348.72,239.998l-50.4,144
	H118.24l-36-144H348.72z"/>
<g>
</g>
<g>
</g>
<g>
</g>
<g>
</g>
<g>
</g>
<g>
</g>
<g>
</g>
<g>
</g>
<g>
</g>
<g>
</g>
<g>
</g>
<g>
</g>
<g>
</g>
<g>
</g>
<g>
</g>
</svg>
